<?xml version="1.0" encoding="UTF-8" standalone="no"?>
<!DOCTYPE svg PUBLIC "-//W3C//DTD SVG 1.1//EN" "http://www.w3.org/Graphics/SVG/1.1/DTD/svg11.dtd">
<svg version="1.1" xmlns="http://www.w3.org/2000/svg" xmlns:xlink="http://www.w3.org/1999/xlink" preserveAspectRatio="xMidYMid meet" viewBox="0 0 525 525" width="525" height="525"><defs><path d="M504.51 0C515.82 0 525 9.18 525 20.49C525 121.4 525 403.6 525 504.51C525 515.82 515.82 525 504.51 525C403.6 525 121.4 525 20.49 525C9.18 525 0 515.82 0 504.51C0 403.6 0 121.4 0 20.49C0 9.18 9.18 0 20.49 0C121.4 0 403.6 0 504.51 0Z" id="aCweX9rIJ"></path><path d="" id="b7JBPMj9op"></path><path d="" id="bA9dgh8e6"></path><path d="" id="cREnqHds2"></path><path d="M197.92 208.34L124.39 525L264.1 525L339.1 208.34L452.33 208.34L483.21 114.67L80.55 114.67L49.39 208.34L49.39 208.34L197.92 208.34Z" id="brfp4ewer"></path><path d="" id="i2oAor5NtU"></path></defs><g><g><g><use xlink:href="#aCweX9rIJ" opacity="1" fill="#212121" fill-opacity="1"></use></g><g><g><use xlink:href="#b7JBPMj9op" opacity="1" fill-opacity="0" stroke="#000000" stroke-width="1" stroke-opacity="1"></use></g></g><g><g><use xlink:href="#bA9dgh8e6" opacity="1" fill-opacity="0" stroke="#000000" stroke-width="1" stroke-opacity="1"></use></g></g><g><g><use xlink:href="#cREnqHds2" opacity="1" fill-opacity="0" stroke="#000000" stroke-width="1" stroke-opacity="1"></use></g></g><g><use xlink:href="#brfp4ewer" opacity="1" fill="#ffffff" fill-opacity="1"></use></g><g><g><use xlink:href="#i2oAor5NtU" opacity="1" fill-opacity="0" stroke="#b4843c" stroke-width="1" stroke-opacity="1"></use></g></g></g></g></svg>